<svg xmlns="http://www.w3.org/2000/svg" width="430.066" height="363.535" viewBox="0 0 430.066 363.535">
  <g id="Group_2639" data-name="Group 2639" transform="translate(-744.514 -399)">
    <path id="Path_830" data-name="Path 830" d="M271.822,38.941c13.729-12.228,35.267-14.721,54.877-13.746,61.587,3.058,117.187,32.791,165.259,66.42,17.411,12.172,34.549,25.294,45.848,42.059,23,34.13,16.18,81.411-15.824,109.527-10.88,9.563-24.075,16.9-37.637,23.4-24.083,11.548-50.065,20.837-77.412,23.48-19.49,1.882-39.219.351-58.593-2.275-54.137-7.343-107.277-23.579-151.83-51.353-19.537-12.185-37.949-27.329-46-47.046s-2.831-44.651,17.116-56.34c8.25-4.824,18.113-7.006,27.77-9.05,14.212-2.994,28.655-5.988,41.486-12.1,13.258-6.321,28.937-18.553,26.316-32.551C260.381,64.35,258.136,51.155,271.822,38.941Z" transform="translate(619.11 373.996)" fill="#3a4a79" opacity="0.1"/>
    <ellipse id="Ellipse_4" data-name="Ellipse 4" cx="203.302" cy="31.243" rx="203.302" ry="31.243" transform="translate(767.976 700.049)" fill="#3a4a79"/>
    <rect id="Rectangle_148" data-name="Rectangle 148" width="13.622" height="38.992" transform="translate(969.156 684.109)" fill="#3a4a79"/>
    <rect id="Rectangle_149" data-name="Rectangle 149" width="13.622" height="38.992" transform="translate(969.156 684.109)" opacity="0.3"/>
    <path id="Path_832" data-name="Path 832" d="M494.967,767.659l-.214,4.456,10.025.941-31.166,7.519s-5.479-.47-4.538,7.361h7.673l.154-1.565,62.327-4.388,48.389,12.061h.783v1.407h8.614s.783-5.949-2.352-7.827-19.571-8.3-19.571-8.3l26.307-2.506,5.167.158s-.154-6.578-4.072-7.048-59.218-5.8-59.218-5.8h-8.9l-2.664.8-34.5.569a2.267,2.267,0,0,0-2.241,2.16Z" transform="translate(434.782 -49.013)" fill="#3a4a79"/>
    <path id="Path_833" data-name="Path 833" d="M635.522,691.63v4.521c-4.906.783-7.985,1.116-7.985,1.116a31.544,31.544,0,0,1-5.637.509V691.63Z" transform="translate(347.256 -7.521)" opacity="0.1"/>
    <path id="Path_835" data-name="Path 835" d="M422.952,562.215s-5.479,9.238,10.337,9.55c0,0,11.744,1.095,20.529,18.634s39.933,33.668,59.35,30.067c0,0,65.009-7.014,72.78-32.41l5.363-13.784s22.24-1.711,24.584-1.411.783-6.415.783-6.415l-5.8-4.226-13.78,2.348-15.658,14.4L532.569,601.99l-47.136-6.736S448.164,571.3,447.852,570.2s-15.033-11.12-15.033-11.12Z" transform="translate(461.642 68.339)" fill="#3a4a79"/>
    <path id="Path_837" data-name="Path 837" d="M494.967,767.659l-.214,4.456,10.025.941-31.166,7.519s-5.479-.47-4.538,7.361h7.673l.154-1.565,62.327-4.388,48.389,12.061h.783v1.407h8.614s.783-5.949-2.352-7.827-19.571-8.3-19.571-8.3l26.307-2.506,5.167.158s-.154-6.578-4.072-7.048-59.218-5.8-59.218-5.8h-8.9l-2.664.8-34.5.569a2.267,2.267,0,0,0-2.241,2.16Z" transform="translate(434.782 -49.013)" opacity="0.3"/>
    <path id="Path_838" data-name="Path 838" d="M422.952,562.215s-5.479,9.238,10.337,9.55c0,0,11.744,1.095,20.529,18.634s39.933,33.668,59.35,30.067c0,0,65.009-7.014,72.78-32.41l5.363-13.784s22.24-1.711,24.584-1.411.783-6.415.783-6.415l-5.8-4.226-13.78,2.348-15.658,14.4L532.569,601.99l-47.136-6.736S448.164,571.3,447.852,570.2s-15.033-11.12-15.033-11.12Z" transform="translate(461.642 68.339)" opacity="0.4"/>
    <path id="Path_839" data-name="Path 839" d="M614.351,401.985l-13.4,14.969c-32,37.038-92.274,23.3-113.338,20.358s-31.837-35.071-31.837-35.071a8.1,8.1,0,0,0,2.4-.1c3.546-.607,10.192-3.541,14.062-16.582,5.457-18.391-18.108-58.38-23.814-62.793s-4.465-12.018-3.969-28.228,13.626-10.068,13.626-10.068l21.333,12.754c52.336,7.361,80.119.736,80.119.736l24.058-11.526c10.667-2.7,12.4-2.455,18.6,12.018s-4.465,26.983-4.465,26.983c-35.964,26.735-31.251,63.3-25.55,76.775,3.849,9.088,21.633,5.825,32.842,2.724C610.459,403.452,614.351,401.985,614.351,401.985Z" transform="translate(449.077 226.153)" fill="#3a4a79"/>
    <path id="Path_840" data-name="Path 840" d="M614.351,401.985l-13.4,14.969c-32,37.038-92.274,23.3-113.338,20.358s-31.837-35.071-31.837-35.071a8.1,8.1,0,0,0,2.4-.1c3.546-.607,10.192-3.541,14.062-16.582,5.457-18.391-18.108-58.38-23.814-62.793s-4.465-12.018-3.969-28.228,13.626-10.068,13.626-10.068l21.333,12.754c52.336,7.361,80.119.736,80.119.736l24.058-11.526c10.667-2.7,12.4-2.455,18.6,12.018s-4.465,26.983-4.465,26.983c-35.964,26.735-31.251,63.3-25.55,76.775,3.849,9.088,21.633,5.825,32.842,2.724C610.459,403.452,614.351,401.985,614.351,401.985Z" transform="translate(449.077 226.153)" opacity="0.1"/>
    <path id="Path_841" data-name="Path 841" d="M615.425,406.529l-12.681,14.315c-30.3,35.468-87.381,22.313-107.35,19.494s-30.144-33.591-30.144-33.591a7.632,7.632,0,0,0,2.262-.094c3.362-.582,9.653-3.392,13.318-15.876,5.167-17.621-17.146-55.908-22.548-60.133s-4.238-11.5-3.759-26.987,12.921-9.632,12.921-9.632l20.2,12.2c49.561,7.044,75.872.706,75.872.706L586.3,295.886c10.1-2.566,11.744-2.348,17.617,11.509s-4.226,25.841-4.226,25.841c-34.061,25.593-29.6,60.612-24.182,73.528,3.635,8.7,20.482,5.56,31.1,2.609C611.743,407.937,615.425,406.529,615.425,406.529Z" transform="translate(443.303 220.654)" fill="#3a4a79"/>
    <path id="Path_843" data-name="Path 843" d="M630.375,558.53l-12.681,14.315c-30.3,35.468-87.381,22.313-107.35,19.494S480.2,558.748,480.2,558.748a7.631,7.631,0,0,0,2.262-.094,58.171,58.171,0,0,1,7.6,7.613c22.082,26.153,55.6,24.43,55.6,24.43s48.543,5.791,66.395-21.457a76.948,76.948,0,0,1,9.49-7.882C626.692,559.937,630.375,558.53,630.375,558.53Z" transform="translate(428.353 68.654)" opacity="0.1"/>
    <path id="Path_846" data-name="Path 846" d="M583.86,583.451c-9.409,10.376-27.329,22.368-59.688,21.286,0,0-58.251,7.365-79.708-36.952,0,0-8.306-15.226-23.694-6.809l-.428.231-.941-6.578s13.78-18.481,35.857,7.673,55.6,24.43,55.6,24.43,48.547,5.791,66.4-21.457c0,0,25.234-25.52,37.115-9.862l.646,4.752.141,1.044s-12.377-4.076-21.119,6.574Z" transform="translate(463.149 74.513)" opacity="0.1"/>
    <path id="Path_847" data-name="Path 847" d="M419.42,552.431s13.78-18.476,35.862,7.673a64.783,64.783,0,0,0,8.306,8.216c21.286,17.552,47.285,16.227,47.285,16.227s48.543,5.8,66.395-21.453c0,0,25.234-25.525,37.115-9.867l.783,5.8s-13.3-4.414-22.077,7.818c0,0-12.685,37.581-68.905,35.7,0,0-58.251,7.361-79.708-36.957,0,0-8.455-15.5-24.113-6.578Z" transform="translate(463.138 75.77)" fill="#3a4a79"/>
    <path id="Path_848" data-name="Path 848" d="M566.571,345.543l-1.129.09c-1.2-2.369-1.505-12.831-1.069-22.715l-.937-.039c-.205,4.649-.646,18.468,1.1,22.822-11.06.821-60.185,4.161-77.711-.026,6.065-12.805,1.689-23.553,1.642-23.664l-.855.364c.043.107,4.213,10.329-1.5,22.668-2.853-4.465-17.929-26.863-31.35-23.951l.2.92c12.4-2.7,26.966,18.344,30.165,23.232l-.573-.145,1.24,1.2.428.671.081-.163a46.4,46.4,0,0,1,11.774,31.906c-.154,4.983,3.139,9.452,9.525,12.933,7.168,3.909,16.924,5.945,25.7,5.945,7.036,0,13.442-1.309,17.364-4.012,3.161-2.177,4.576-5.175,4.1-8.678-2.6-19.113,12.181-38.291,12.429-38.608,20.23-24.212,36.914-22.475,37.081-22.458l.115-.932C603.669,322.815,587.109,321.049,566.571,345.543Zm-12.762,39.48c.428,3.173-.813,5.791-3.7,7.78-8.417,5.8-29.652,4.794-42.08-1.98-4.221-2.305-9.212-6.266-9.033-12.082A47.468,47.468,0,0,0,487.542,346.8c18.673,3.943,67.489.552,77.493-.2a1.206,1.206,0,0,0,.47.372C562.234,351.625,551.521,368.313,553.809,385.023Z" transform="translate(442.912 204.691)" opacity="0.1"/>
    <path id="Path_849" data-name="Path 849" d="M582.81,760.36l19.755,5.731-3.939.376Z" transform="translate(411.246 -36.164)" opacity="0.1"/>
    <path id="Path_850" data-name="Path 850" d="M450.136,755.383l14.251-3.443-18.177,3.075Z" transform="translate(489.424 -31.345)" opacity="0.1"/>
    <rect id="Rectangle_150" data-name="Rectangle 150" width="2.429" height="54.701" transform="translate(795.031 621.932)" fill="#535461"/>
    <path id="Path_900" data-name="Path 900" d="M212.022,668.832l-.154,2.464-.214,3.477-.09,1.45-.214,3.481-.094,1.45-.214,3.477-2.455,39.553a6.7,6.7,0,0,1-6.685,6.283H189.17a6.7,6.7,0,0,1-6.685-6.283l-2.455-39.553-.214-3.477-.09-1.45-.218-3.481-.09-1.45-.214-3.477-.154-2.464a3.469,3.469,0,0,1,3.464-3.682h26.046a3.469,3.469,0,0,1,3.46,3.682Z" transform="translate(600.707 7.634)" fill="#3f3d56"/>
    <path id="Path_901" data-name="Path 901" d="M114.773,654.52,114.559,658H82.324l-.214-3.477Z" transform="translate(697.802 24.41)" fill="#9d9cb5"/>
    <path id="Path_902" data-name="Path 902" d="M114.875,666.04l-.214,3.481H83.038l-.218-3.481Z" transform="translate(697.396 17.817)" fill="#9d9cb5"/>
    <path id="Path_903" data-name="Path 903" d="M114.979,677.57l-.214,3.477H83.758l-.218-3.477Z" transform="translate(696.984 11.218)" fill="#9d9cb5"/>
    <path id="Path_904" data-name="Path 904" d="M128.99,579.711c14.152,10.239,20.042,26.247,20.042,26.247s-17.048-.586-31.2-10.821S97.79,568.89,97.79,568.89,114.842,569.476,128.99,579.711Z" transform="translate(647.21 62.725)" fill="#3a4a79"/>
    <path id="Path_905" data-name="Path 905" d="M97.79,568.89s17.7,9.837,23.378,17.963,27.864,19.109,27.864,19.109" transform="translate(647.21 62.725)" fill="none" stroke="#535461" stroke-miterlimit="10" stroke-width="2"/>
    <path id="Path_906" data-name="Path 906" d="M169.374,538.119A34.263,34.263,0,0,1,180.28,552.4a31.183,31.183,0,0,1-27.89-20.174A34.454,34.454,0,0,1,169.374,538.119Z" transform="translate(615.962 83.705)" fill="#3a4a79"/>
    <path id="Path_907" data-name="Path 907" d="M152.39,532.2s9.632,5.346,12.724,9.773,15.166,10.4,15.166,10.4" transform="translate(615.962 83.723)" fill="none" stroke="#535461" stroke-miterlimit="10" stroke-width="2"/>
    <path id="Path_908" data-name="Path 908" d="M229.428,561.234c-8.845,9.721-10.718,22.428-10.718,22.428s12.471-3.062,21.32-12.784,10.718-22.428,10.718-22.428S238.277,551.508,229.428,561.234Z" transform="translate(578.006 74.422)" fill="#3a4a79"/>
    <path id="Path_909" data-name="Path 909" d="M250.748,548.45s-11.526,9.965-14.452,16.834-17.587,18.391-17.587,18.391" transform="translate(578.006 74.422)" fill="none" stroke="#535461" stroke-miterlimit="10" stroke-width="2"/>
    <path id="Path_910" data-name="Path 910" d="M954.212,667.11s2.472,3.229-1.142,8.126-6.591,8.982-5.385,12.039c0,0,5.449-9.058,9.884-9.187S959.092,672.559,954.212,667.11Z" transform="translate(160.962 6.512)" opacity="0.1"/>
    <path id="Path_911" data-name="Path 911" d="M954.4,667.11a3.91,3.91,0,0,1,.5,1.014c4.328,5.085,6.633,9.837,2.472,9.948-3.875.111-8.524,7.04-9.636,8.789a3.1,3.1,0,0,0,.132.4s5.449-9.058,9.884-9.187S959.279,672.559,954.4,667.11Z" transform="translate(160.775 6.512)" opacity="0.1"/>
    <path id="Path_912" data-name="Path 912" d="M973.289,675.765c0,1.138-.128,2.057-.287,2.057s-.282-.92-.282-2.057.158-.6.316-.6S973.289,674.628,973.289,675.765Z" transform="translate(146.478 1.976)" fill="#3f3d56"/>
    <path id="Path_913" data-name="Path 913" d="M975.129,678.87c-1,.547-1.869.877-1.946.736s.671-.693,1.672-1.236.6-.145.68,0S976.125,678.326,975.129,678.87Z" transform="translate(146.217 0.227)" fill="#3f3d56"/>
    <path id="Path_914" data-name="Path 914" d="M925.363,667.11s-2.472,3.229,1.138,8.126,6.591,8.982,5.389,12.039c0,0-5.449-9.058-9.888-9.187S920.483,672.559,925.363,667.11Z" transform="translate(176.758 6.512)" fill="#3f3d56"/>
    <path id="Path_915" data-name="Path 915" d="M954.212,667.11s2.472,3.229-1.142,8.126-6.591,8.982-5.385,12.039c0,0,5.449-9.058,9.884-9.187S959.092,672.559,954.212,667.11Z" transform="translate(160.962 6.512)" fill="#d4dfec"/>
    <path id="Path_916" data-name="Path 916" d="M925.363,667.11s-2.472,3.229,1.138,8.126,6.591,8.982,5.389,12.039c0,0-5.449-9.058-9.888-9.187S920.483,672.559,925.363,667.11Z" transform="translate(176.758 6.512)" opacity="0.1"/>
    <path id="Path_917" data-name="Path 917" d="M925.363,667.11a3.913,3.913,0,0,0-.5,1.014c-4.328,5.085-6.634,9.837-2.476,9.948,3.875.111,8.524,7.04,9.64,8.789a3.935,3.935,0,0,1-.133.4s-5.449-9.076-9.888-9.187S920.483,672.559,925.363,667.11Z" transform="translate(176.757 6.512)" opacity="0.1"/>
    <path id="Path_918" data-name="Path 918" d="M922,675.765c0,1.138.128,2.057.286,2.057s.286-.92.286-2.057-.158-.6-.316-.6S922,674.628,922,675.765Z" transform="translate(175.506 1.976)" fill="#d4dfec"/>
    <path id="Path_919" data-name="Path 919" d="M917.544,678.87c1,.547,1.869.877,1.946.736s-.676-.693-1.672-1.236-.607-.145-.68,0S916.534,678.326,917.544,678.87Z" transform="translate(178.406 0.227)" fill="#d4dfec"/>
    <path id="Path_920" data-name="Path 920" d="M943.57,701.98l-.124,1.009-.171,1.424-.073.594-.175,1.428-.073.595-.175,1.424L940.8,724.664c-.175,1.446-2.54,2.566-5.393,2.566h-10.29c-2.857,0-5.218-1.129-5.393-2.566l-1.98-16.209-.171-1.424-.073-.595-.18-1.428-.068-.594-.175-1.424-.086-1.009c-.1-.817,1.18-1.51,2.8-1.51H940.8C942.389,700.487,943.672,701.18,943.57,701.98Z" transform="translate(178.375 -12.58)" fill="#3f3d56"/>
    <path id="Path_921" data-name="Path 921" d="M846.284,681.4l-.175,1.424h-26l-.175-1.424Z" transform="translate(275.54 9.026)" fill="#9d9cb5"/>
    <path id="Path_922" data-name="Path 922" d="M846.368,686.12l-.171,1.428H820.685l-.175-1.428Z" transform="translate(275.208 6.325)" fill="#9d9cb5"/>
    <path id="Path_923" data-name="Path 923" d="M846.452,690.85l-.171,1.424h-25.02l-.171-1.424Z" transform="translate(274.876 3.618)" fill="#9d9cb5"/>
    <text id="_404" data-name="404" transform="translate(759.08 466.769)" fill="#ff7f00" font-size="70" font-family="Calibri-Bold, Calibri" font-weight="700"><tspan x="0" y="0">404</tspan></text>
  </g>
</svg>
