<svg xmlns="http://www.w3.org/2000/svg" width="119.96" height="119.963" viewBox="0 0 119.96 119.963">
  <g id="accept" transform="translate(-0.278)">
    <path id="Path_2698" data-name="Path 2698" d="M60.259,0a59.982,59.982,0,1,0,59.98,59.982A60.048,60.048,0,0,0,60.259,0Zm0,115.073a55.091,55.091,0,1,1,55.089-55.091A55.154,55.154,0,0,1,60.259,115.073Zm0,0" fill="#fff"/>
    <path id="Path_2699" data-name="Path 2699" d="M159.242,132.886l-42.649,42.648L97.285,156.228a2.445,2.445,0,0,0-3.458,3.458l21.036,21.035a2.446,2.446,0,0,0,3.458,0L162.7,136.344a2.445,2.445,0,0,0-3.458-3.458Zm0,0" transform="translate(-68.005 -96.822)" fill="#fff"/>
  </g>
</svg>
