<svg xmlns="http://www.w3.org/2000/svg" width="18" height="18" viewBox="0 0 18 18">
  <g id="cancel" transform="translate(-0.001)">
    <g id="Group_2626" data-name="Group 2626" transform="translate(0.001)">
      <path id="Path_2727" data-name="Path 2727" d="M9,0a9,9,0,1,0,9,9A9,9,0,0,0,9,0Zm3.4,12.43a.92.92,0,0,1-1.3,0L9.048,10.382,6.906,12.523a.92.92,0,0,1-1.3-1.3L7.747,9.082,5.754,7.088a.92.92,0,0,1,1.3-1.3L9.048,7.781l1.9-1.9a.92.92,0,0,1,1.3,1.3l-1.9,1.9L12.4,11.129A.92.92,0,0,1,12.4,12.43Z" transform="translate(-0.001)" fill="#f10840"/>
    </g>
  </g>
</svg>
