<svg xmlns="http://www.w3.org/2000/svg" width="52" height="52" viewBox="0 0 52 52">
  <g id="carousel_2" data-name="carousel 2" transform="translate(-595 -596)">
    <circle id="Ellipse_52" data-name="Ellipse 52" cx="26" cy="26" r="26" transform="translate(595 596)" fill="#3a4a79"/>
    <g id="Group_8" data-name="Group 8" transform="translate(625.4 630) rotate(180)">
      <path id="Path_57" data-name="Path 57" d="M110.623,7.376,103.5.256a.877.877,0,0,0-1.238,0L101.74.78a.876.876,0,0,0,0,1.238L107.719,8l-5.986,5.986a.877.877,0,0,0,0,1.238l.524.524a.877.877,0,0,0,1.238,0l7.127-7.127a.883.883,0,0,0,0-1.242Z" transform="translate(-101.478)" fill="#fff"/>
    </g>
  </g>
</svg>
