<svg xmlns="http://www.w3.org/2000/svg" width="24" height="24" viewBox="0 0 24 24">
  <g id="colour_checked" data-name="colour checked" transform="translate(-1053 -421)">
    <g id="Rectangle_6678" data-name="Rectangle 6678" transform="translate(1053 421)" fill="none" stroke="#25282a" stroke-width="1">
      <rect width="24" height="24" rx="5" stroke="none"/>
      <rect x="0.5" y="0.5" width="23" height="23" rx="4.5" fill="none"/>
    </g>
    <path id="checked_5" data-name="checked 5" d="M.1,6.791a.333.333,0,0,1,0-.482l.482-.482a.333.333,0,0,1,.482,0L1.1,5.86,3,7.894a.167.167,0,0,0,.241,0L7.858,3.1h.034a.333.333,0,0,1,.482,0l.482.482a.333.333,0,0,1,0,.482h0L3.343,9.789a.333.333,0,0,1-.482,0L.172,6.894.1,6.791Z" transform="translate(1061 427)" fill="#25282a"/>
  </g>
</svg>
