<svg xmlns="http://www.w3.org/2000/svg" width="19.741" height="13.874" viewBox="0 0 19.741 13.874">
  <g id="delivery-truck" transform="translate(0 -90.939)">
    <path id="Path_2046" data-name="Path 2046" d="M.693,100.183v-8.4a.845.845,0,0,1,.845-.845H9.933a.845.845,0,0,1,.845.845v8.4a.282.282,0,0,1-.282.282H.974A.282.282,0,0,1,.693,100.183Zm6.779,2.877a1.753,1.753,0,1,1-1.753-1.753A1.753,1.753,0,0,1,7.472,103.061Zm-.876,0a.876.876,0,1,0-.876.876A.876.876,0,0,0,6.6,103.061Zm-2.386-1.753H.282A.282.282,0,0,0,0,101.59v.855a.282.282,0,0,0,.282.282H3.43A2.312,2.312,0,0,1,4.209,101.308Zm12.433,1.753a1.753,1.753,0,1,1-1.753-1.753A1.753,1.753,0,0,1,16.643,103.061Zm-.876,0a.876.876,0,1,0-.876.876A.876.876,0,0,0,15.766,103.061Zm3.975-1.471v.855a.282.282,0,0,1-.282.282H17.179a2.313,2.313,0,0,0-4.578,0H8.008a2.312,2.312,0,0,0-.779-1.418h4.354V93.25a.563.563,0,0,1,.563-.563h2.659a2.253,2.253,0,0,1,1.868.993l1.714,2.539a2.254,2.254,0,0,1,.386,1.261v3.828h.686A.282.282,0,0,1,19.741,101.59Zm-2.858-5.306-1.371-1.948a.282.282,0,0,0-.23-.12H13.144a.282.282,0,0,0-.282.282v1.948a.282.282,0,0,0,.282.282h3.509A.282.282,0,0,0,16.884,96.284Z" transform="translate(0 0)" fill="#446b80"/>
  </g>
</svg>
