<svg xmlns="http://www.w3.org/2000/svg" width="19.307" height="14" viewBox="0 0 19.307 14">
  <path id="email" d="M17.287.492H2.02A2.022,2.022,0,0,0,0,2.512v9.961a2.022,2.022,0,0,0,2.02,2.02H17.287a2.022,2.022,0,0,0,2.02-2.02V2.512a2.022,2.022,0,0,0-2.02-2.02Zm-3.591,7L18.5,3.72v8.431ZM2.02,1.3H17.287A1.213,1.213,0,0,1,18.5,2.512v.181l-7.772,6.1a1.615,1.615,0,0,1-1.989,0l-7.93-6.1v-.18A1.213,1.213,0,0,1,2.02,1.3ZM5.753,7.515.808,12.168V3.711Zm11.534,6.169H2.02a1.212,1.212,0,0,1-1.032-.577L6.4,8.014,8.243,9.43a2.421,2.421,0,0,0,2.982,0l1.831-1.436L18.321,13.1a1.212,1.212,0,0,1-1.034.58Zm0,0" transform="translate(0 -0.492)" fill="#fff"/>
</svg>
