<svg xmlns="http://www.w3.org/2000/svg" width="252" height="201.7" viewBox="0 0 252 201.7">
  <g id="Group_2636" data-name="Group 2636" transform="translate(-815.001 -414.3)">
    <path id="Path_2730" data-name="Path 2730" d="M189.029,758.773c5.054,9.373,15.78,13.4,15.78,13.4s2.532-11.173-2.522-20.545-15.78-13.4-15.78-13.4S183.975,749.4,189.029,758.773Z" transform="translate(643.249 -157.486)" fill="#2f2e41"/>
    <path id="Path_2731" data-name="Path 2731" d="M172.4,775.562c9.124,5.49,12.639,16.393,12.639,16.393s-11.28,2-20.4-3.486S152,772.076,152,772.076,163.28,770.073,172.4,775.562Z" transform="translate(663.348 -177.358)" fill="#3a4a79"/>
    <rect id="Rectangle_6463" data-name="Rectangle 6463" width="56.93" height="0.813" transform="translate(985.02 441.545)" fill="#d5dae1"/>
    <rect id="Rectangle_6464" data-name="Rectangle 6464" width="0.813" height="7.523" transform="translate(1000.472 434.225)" fill="#d5dae1"/>
    <rect id="Rectangle_6465" data-name="Rectangle 6465" width="0.813" height="7.523" transform="translate(1025.277 434.225)" fill="#d5dae1"/>
    <rect id="Rectangle_6466" data-name="Rectangle 6466" width="56.93" height="0.813" transform="translate(1002.912 539.547)" fill="#d5dae1"/>
    <rect id="Rectangle_6467" data-name="Rectangle 6467" width="0.813" height="7.523" transform="translate(1018.365 532.227)" fill="#d5dae1"/>
    <rect id="Rectangle_6468" data-name="Rectangle 6468" width="0.813" height="7.523" transform="translate(1043.17 532.227)" fill="#d5dae1"/>
    <path id="Path_2732" data-name="Path 2732" d="M221.562,638.792H125.274V638.1h95.595V604.5h-87.5l-4.251-8.855.625-.3,4.062,8.462h87.757Z" transform="translate(741.016 -41.796)" fill="#2f2e41"/>
    <circle id="Ellipse_54" data-name="Ellipse 54" cx="7.274" cy="7.274" r="7.274" transform="translate(871.832 599.42)" fill="#3f3d56"/>
    <circle id="Ellipse_55" data-name="Ellipse 55" cx="7.274" cy="7.274" r="7.274" transform="translate(943.528 599.42)" fill="#3f3d56"/>
    <circle id="Ellipse_56" data-name="Ellipse 56" cx="4.503" cy="4.503" r="4.503" transform="translate(1030.81 447.715)" fill="#3f3d56"/>
    <path id="Path_2733" data-name="Path 2733" d="M347.294,554.076H239.066l-23.418-76.545H371.411l-.142.45Zm-107.715-.693H346.786l23.681-75.16H216.585Z" transform="translate(625.582 -2.8)" fill="#2f2e41"/>
    <path id="Path_2734" data-name="Path 2734" d="M197.89,480.9H102.829L82.26,413.015H219.072l-.124.4Z" transform="translate(766.538 66.392)" fill="#d5dae1"/>
    <path id="Path_2735" data-name="Path 2735" d="M450.488,359.3l-.67-.178,4.571-17.229h26.59v.693H454.922Z" transform="translate(548.446 108.591)" fill="#2f2e41"/>
    <rect id="Rectangle_6472" data-name="Rectangle 6472" width="140.412" height="0.693" transform="translate(848.798 497.937)" fill="#2f2e41"/>
    <rect id="Rectangle_6473" data-name="Rectangle 6473" width="124.563" height="0.693" transform="translate(856.605 523.458)" fill="#2f2e41"/>
    <rect id="Rectangle_6474" data-name="Rectangle 6474" width="0.693" height="75.853" transform="translate(918.763 475.077)" fill="#2f2e41"/>
    <rect id="Rectangle_6475" data-name="Rectangle 6475" width="76.014" height="0.693" transform="matrix(0.065, -0.998, 0.998, 0.065, 945.498, 550.907)" fill="#2f2e41"/>
    <rect id="Rectangle_6476" data-name="Rectangle 6476" width="0.693" height="76.014" transform="translate(887.072 475.099) rotate(-3.729)" fill="#2f2e41"/>
    <rect id="Rectangle_6477" data-name="Rectangle 6477" width="252" height="1" transform="translate(815.001 615)" fill="#2f2e41"/>
    <rect id="Rectangle_6478" data-name="Rectangle 6478" width="56.93" height="0.813" transform="translate(839.847 454.964)" fill="#d5dae1"/>
    <rect id="Rectangle_6479" data-name="Rectangle 6479" width="0.813" height="7.523" transform="translate(855.3 447.645)" fill="#d5dae1"/>
    <rect id="Rectangle_6480" data-name="Rectangle 6480" width="0.813" height="7.523" transform="translate(880.105 447.645)" fill="#d5dae1"/>
    <rect id="Rectangle_6484" data-name="Rectangle 6484" width="56.93" height="0.813" transform="translate(917.11 414.706)" fill="#d5dae1"/>
    <rect id="Rectangle_6485" data-name="Rectangle 6485" width="0.813" height="7.523" transform="translate(957.775 415.316)" fill="#d5dae1"/>
    <rect id="Rectangle_6486" data-name="Rectangle 6486" width="0.813" height="7.523" transform="translate(932.969 415.316)" fill="#d5dae1"/>
    <rect id="Rectangle_6487" data-name="Rectangle 6487" width="56.93" height="0.813" transform="translate(820.328 414.3)" fill="#d5dae1"/>
    <rect id="Rectangle_6488" data-name="Rectangle 6488" width="0.813" height="7.523" transform="translate(860.993 414.91)" fill="#d5dae1"/>
    <rect id="Rectangle_6489" data-name="Rectangle 6489" width="0.813" height="7.523" transform="translate(836.187 414.91)" fill="#d5dae1"/>
  </g>
</svg>
