<svg xmlns="http://www.w3.org/2000/svg" xmlns:xlink="http://www.w3.org/1999/xlink" width="18" height="18" viewBox="0 0 18 18">
  <defs>
    <clipPath id="clip-halhazirda_movcuddur">
      <rect width="18" height="18"/>
    </clipPath>
  </defs>
  <g id="halhazirda_movcuddur" data-name="halhazirda movcuddur" clip-path="url(#clip-halhazirda_movcuddur)">
    <g id="Group_2627" data-name="Group 2627" transform="translate(-969.001 -546.001)">
      <path id="Subtraction_1" data-name="Subtraction 1" d="M9,18a9,9,0,1,1,9-9A9.01,9.01,0,0,1,9,18ZM5.719,8.249a.751.751,0,0,0-.531,1.281l2.438,2.437a.749.749,0,0,0,1.06,0l4.875-4.875a.75.75,0,1,0-1.06-1.06L8.157,10.377,6.249,8.469A.746.746,0,0,0,5.719,8.249Z" transform="translate(969.001 546.001)" fill="#21c28b"/>
    </g>
  </g>
</svg>
