<svg xmlns="http://www.w3.org/2000/svg" width="13.513" height="13.083" viewBox="0 0 13.513 13.083">
  <g id="house-black-silhouette-without-door" transform="translate(0 -4.89)">
    <path id="Path_787" data-name="Path 787" d="M13.344,11.273a.644.644,0,0,0-.053-.922L7.252,5.067a.753.753,0,0,0-.982.011L.21,10.633a.641.641,0,0,0-.029.921l.152.158a.663.663,0,0,0,.909.07l.453-.406v5.938a.659.659,0,0,0,.659.659H4.716a.659.659,0,0,0,.659-.659V13.16H8.389v4.154a.623.623,0,0,0,.619.659h2.5a.659.659,0,0,0,.659-.659V11.46l.279.245c.154.135.478.027.723-.243Z" transform="translate(0 0)" fill="#25282a"/>
  </g>
</svg>
