<svg width="21" height="16" viewBox="0 0 21 16" fill="none" xmlns="http://www.w3.org/2000/svg">
<path d="M11.0527 3.23389C13.6286 3.47412 15.7974 4.5485 17.5591 6.45703C19.3341 8.39225 20.2217 10.6745 20.2217 13.3037C20.2217 13.9977 20.1483 14.6851 20.0015 15.3657H18.0996C18.2731 14.6851 18.3599 13.9977 18.3599 13.3037C18.3599 11.195 17.6592 9.35319 16.2578 7.77832C14.8564 6.23014 13.1214 5.33594 11.0527 5.0957V12.3228L9.271 13.2437V5.07568C7.17562 5.28923 5.42057 6.17676 4.00586 7.73828C2.56445 9.31315 1.84375 11.1683 1.84375 13.3037C1.84375 13.9977 1.93717 14.6851 2.12402 15.3657H0.222168C0.0753581 14.6851 0.00195312 13.9977 0.00195312 13.3037C0.00195312 10.6611 0.896159 8.37223 2.68457 6.43701C4.47298 4.50179 6.66846 3.42741 9.271 3.21387V1.49219L11.0527 0.571289V3.23389Z" fill="#333333"/>
</svg>
