<svg xmlns="http://www.w3.org/2000/svg" width="14.341" height="10.493" viewBox="0 0 14.341 10.493">
  <path id="icon-azn" d="M7.84,2.46a6.962,6.962,0,0,1,4.615,2.286,7.131,7.131,0,0,1,1.732,6.319H12.838A5.9,5.9,0,0,0,13.023,9.6,5.835,5.835,0,0,0,7.84,3.78V8.906l-1.264.653V3.766A5.651,5.651,0,0,0,2.842,5.655,5.655,5.655,0,0,0,1.308,9.6a5.5,5.5,0,0,0,.2,1.463H.158A6.917,6.917,0,0,1,0,9.6a6.937,6.937,0,0,1,1.9-4.87A6.929,6.929,0,0,1,6.576,2.446V1.224L7.84.571Z" transform="translate(-0.002 -0.571)" fill="#f10840"/>
</svg>
