<svg id="instagram-logo" xmlns="http://www.w3.org/2000/svg" width="17.912" height="17.912" viewBox="0 0 17.912 17.912">
  <path id="Path_61" data-name="Path 61" d="M12.969,0H4.943A4.949,4.949,0,0,0,0,4.943v8.026a4.949,4.949,0,0,0,4.943,4.943h8.026a4.949,4.949,0,0,0,4.943-4.943V4.943A4.949,4.949,0,0,0,12.969,0Zm3.354,12.969a3.358,3.358,0,0,1-3.354,3.354H4.943a3.357,3.357,0,0,1-3.354-3.354V4.943A3.358,3.358,0,0,1,4.943,1.589h8.026a3.358,3.358,0,0,1,3.354,3.354v8.026Z" fill="#fff"/>
  <path id="Path_62" data-name="Path 62" d="M45.583,40.97A4.615,4.615,0,1,0,50.2,45.585,4.621,4.621,0,0,0,45.583,40.97Zm0,7.641a3.026,3.026,0,1,1,3.026-3.026A3.03,3.03,0,0,1,45.583,48.611Z" transform="translate(-36.627 -36.629)" fill="#fff"/>
  <path id="Path_63" data-name="Path 63" d="M120.086,28.251a1.165,1.165,0,1,0,.824.341A1.17,1.17,0,0,0,120.086,28.251Z" transform="translate(-106.321 -25.258)" fill="#fff"/>
</svg>
