<svg id="Group_21" data-name="Group 21" xmlns="http://www.w3.org/2000/svg" width="12.04" height="10" viewBox="0 0 12.04 10">
  <path id="Path_71" data-name="Path 71" d="M11.363,45.73l.019,0H3.325L5.858,43.2a.665.665,0,0,0,0-.935l-.394-.394a.659.659,0,0,0-.93,0L.192,46.207a.664.664,0,0,0,0,.934l4.341,4.341a.66.66,0,0,0,.93,0l.394-.394a.652.652,0,0,0,.192-.465.633.633,0,0,0-.192-.456L3.3,47.614h8.075a.682.682,0,0,0,.668-.675v-.558A.669.669,0,0,0,11.363,45.73Z" transform="translate(0 -41.674)" fill="#ff7f00"/>
</svg>
