<svg xmlns="http://www.w3.org/2000/svg" width="53.756" height="53.756" viewBox="0 0 53.756 53.756">
  <g id="Group_1731" data-name="Group 1731" transform="translate(-295 -164.285)">
    <path id="Path_1" data-name="Path 1" d="M354.353,225.275h-7.826v-5.232h7.826v-3.792h-7.826v-4.291h7.826V208.2H342.065v20.87h12.288Z" transform="translate(-37.259 -34.763)" fill="#ff7f00"/>
    <path id="Path_2" data-name="Path 2" d="M422.345,229.067l7.769-20.87h-4.875l-4.12,12.872q-.214.67-.435,1.711t-.406,2.381q-.271-1.382-.513-2.466t-.356-1.483L415.346,208.2h-4.933l7.713,20.87Z" transform="translate(-91.366 -34.763)" fill="#ff7f00"/>
    <path id="Path_3" data-name="Path 3" d="M348.188,339.622a1.7,1.7,0,0,1-1.626-.054.971.971,0,0,1-.419-.639l-1.555.8a2.023,2.023,0,0,0,1.019,1.1,3.918,3.918,0,0,0,1.842.4,3.49,3.49,0,0,0,2.165-.61,1.962,1.962,0,0,0,.8-1.647,1.759,1.759,0,0,0-.483-1.274,4.008,4.008,0,0,0-1.626-.877c-.057-.019-.14-.045-.248-.078q-1.377-.447-1.377-.966a.559.559,0,0,1,.277-.483,1.494,1.494,0,0,1,1.469.018,1.072,1.072,0,0,1,.419.593l1.484-.738a2.256,2.256,0,0,0-1-1.065,3.784,3.784,0,0,0-3.738.256,2.005,2.005,0,0,0-.8,1.654,1.566,1.566,0,0,0,.472,1.157,4.988,4.988,0,0,0,1.7.93c.124.047.289.107.5.177q1.009.341,1.008.845A.564.564,0,0,1,348.188,339.622Z" transform="translate(-39.257 -134.137)" fill="#ff7f00"/>
    <path id="Path_4" data-name="Path 4" d="M379.206,333.157v-5.381h.973v-1.583h-.973v-2.315h-2.024v2.315h-.972v1.583h.972v5.381Z" transform="translate(-64.289 -126.341)" fill="#ff7f00"/>
    <path id="Path_5" data-name="Path 5" d="M403,341.338a3.826,3.826,0,0,0,2.779-1.065,3.819,3.819,0,0,0,0-5.353,4.179,4.179,0,0,0-5.574.014,3.779,3.779,0,0,0-.007,5.339A3.857,3.857,0,0,0,403,341.338Zm-1.341-5.112a1.765,1.765,0,0,1,1.327-.5,1.783,1.783,0,0,1,1.335.508,2.108,2.108,0,0,1,0,2.723,1.78,1.78,0,0,1-1.332.511,1.751,1.751,0,0,1-1.327-.511,2.14,2.14,0,0,1,0-2.726Z" transform="translate(-82.413 -134.245)" fill="#ff7f00"/>
    <path id="Path_6" data-name="Path 6" d="M447.984,335.988a2.519,2.519,0,0,1,.458.138l.305-2.172-.128-.021a4.5,4.5,0,0,0-.632-.071,2.065,2.065,0,0,0-1.416.5,3.2,3.2,0,0,0-.876,1.519l.042-1.789h-1.994v6.964h2.023v-3.067a2.428,2.428,0,0,1,.4-1.58,1.66,1.66,0,0,1,1.327-.472A2.455,2.455,0,0,1,447.984,335.988Z" transform="translate(-117.751 -134.245)" fill="#ff7f00"/>
    <path id="Path_7" data-name="Path 7" d="M477.34,337.757q.007-.11.007-.2a3.7,3.7,0,0,0-.966-2.7,3.5,3.5,0,0,0-2.626-.99,3.536,3.536,0,0,0-2.645,1.058,4.127,4.127,0,0,0-.046,5.41,3.572,3.572,0,0,0,2.677,1.008,3.944,3.944,0,0,0,1.924-.444,3.763,3.763,0,0,0,1.377-1.359l-1.633-.816a1.77,1.77,0,0,1-.671.646,2.009,2.009,0,0,1-.954.213,1.7,1.7,0,0,1-1.158-.373,1.822,1.822,0,0,1-.546-1.125h5.232Q477.334,337.867,477.34,337.757Zm-5.2-.9a1.587,1.587,0,0,1,.522-1,1.658,1.658,0,0,1,1.09-.337,1.6,1.6,0,0,1,1.075.337,1.509,1.509,0,0,1,.479,1Z" transform="translate(-138.599 -134.245)" fill="#ff7f00"/>
    <path id="Path_8" data-name="Path 8" d="M295,164.285v53.756h30.009v-4.333H299.333v-45.09h45.09v41.72h4.333V164.285Z" fill="#ff7f00"/>
    <path id="Path_9" data-name="Path 9" d="M444.858,411.5a1.046,1.046,0,0,0-.771.324,1.067,1.067,0,0,0-.32.781,1.032,1.032,0,0,0,.32.762,1.1,1.1,0,0,0,1.546,0,1.037,1.037,0,0,0,.317-.765,1.068,1.068,0,0,0-.321-.781A1.045,1.045,0,0,0,444.858,411.5Z" transform="translate(-117.77 -195.708)" fill="#ff7f00"/>
    <path id="Path_10" data-name="Path 10" d="M465.918,391.446a2.494,2.494,0,0,0-.879-.927,2.333,2.333,0,0,0-1.215-.311,2.572,2.572,0,0,0-2.073.879,4.342,4.342,0,0,0,.012,4.884,2.461,2.461,0,0,0,2,.92,2.646,2.646,0,0,0,1.26-.276,2.373,2.373,0,0,0,.886-.867l-.026.9h1.752v-6.227h-1.714Zm-.349,3.389a1.659,1.659,0,0,1-2.313,0,1.915,1.915,0,0,1-.416-1.314,1.958,1.958,0,0,1,.422-1.33,1.454,1.454,0,0,1,1.158-.486,1.428,1.428,0,0,1,1.139.489,1.96,1.96,0,0,1,.422,1.327A1.925,1.925,0,0,1,465.569,394.835Z" transform="translate(-131.418 -178.85)" fill="#ff7f00"/>
    <path id="Path_11" data-name="Path 11" d="M497.138,391.213v1.416h2.9l-3.3,4.811H502.7v-1.415h-3.187l3.263-4.811Z" transform="translate(-159.705 -179.646)" fill="#ff7f00"/>
  </g>
</svg>
