<svg xmlns="http://www.w3.org/2000/svg" width="24.301" height="21.871" viewBox="0 0 24.301 21.871">
  <g id="menu" transform="translate(0 -30.599)">
    <g id="_x33__6_" transform="translate(0 30.599)">
      <g id="Group_1615" data-name="Group 1615" transform="translate(0 0)">
        <path id="Path_1050" data-name="Path 1050" d="M23.086,50.04H1.215a1.215,1.215,0,0,0,0,2.43H23.086a1.215,1.215,0,0,0,0-2.43ZM1.215,33.029H23.086a1.215,1.215,0,0,0,0-2.43H1.215a1.215,1.215,0,0,0,0,2.43Zm21.871,7.29H1.215a1.215,1.215,0,0,0,0,2.43H23.086a1.215,1.215,0,0,0,0-2.43Z" transform="translate(0 -30.599)" fill="#3a4a79"/>
      </g>
    </g>
  </g>
</svg>
