<svg height="512pt" viewBox="0 0 512.00027 512" width="512pt" xmlns="http://www.w3.org/2000/svg"><path d="m487.050781 24.917969c-33.304687-33.222657-87.210937-33.222657-120.511719 0l-337.457031 337.453125c-2.371093 2.375-3.992187 5.398437-4.652343 8.691406l-24.082032 120.445312c-1.882812 9.222657 4.0625 18.222657 13.285156 20.109376 2.253907.460937 4.574219.460937 6.828126 0l120.527343-24.097657c3.292969-.664062 6.316407-2.28125 8.691407-4.65625l337.457031-337.453125c33.183593-33.324218 33.148437-87.21875-.085938-120.492187zm-421.800781 349.484375 241.023438-241.023438 72.3125 72.3125-241.023438 241.027344zm265.121094-265.121094 12.066406-12.066406 72.316406 72.3125-12.066406 12.066406zm-278.757813 299.6875 51.386719 51.382812-64.234375 12.851563zm411.335938-287.640625-24.097657 24.101563-72.3125-72.316407 24.097657-24.097656c19.96875-19.96875 52.34375-19.96875 72.3125 0s19.96875 52.34375 0 72.3125zm0 0"/></svg>