<svg xmlns="http://www.w3.org/2000/svg" width="11.189" height="15.914" viewBox="0 0 11.189 15.914">
  <g id="placeholder" transform="translate(-76)">
    <g id="Group_14" data-name="Group 14" transform="translate(76)">
      <g id="Group_13" data-name="Group 13">
        <path id="Path_64" data-name="Path 64" d="M81.595,0a5.6,5.6,0,0,0-4.76,8.537l4.441,7.157a.466.466,0,0,0,.4.22h0a.466.466,0,0,0,.4-.227L86.4,8.461A5.6,5.6,0,0,0,81.595,0ZM85.6,7.982l-3.935,6.57L77.628,8.045A4.665,4.665,0,1,1,85.6,7.982Z" transform="translate(-76)" fill="#fff"/>
      </g>
    </g>
    <g id="Group_16" data-name="Group 16" transform="translate(78.797 2.797)">
      <g id="Group_15" data-name="Group 15">
        <path id="Path_65" data-name="Path 65" d="M168.8,90a2.8,2.8,0,1,0,2.8,2.8A2.8,2.8,0,0,0,168.8,90Zm0,4.668a1.871,1.871,0,1,1,1.868-1.871A1.873,1.873,0,0,1,168.8,94.668Z" transform="translate(-166 -90)" fill="#fff"/>
      </g>
    </g>
  </g>
</svg>
