<svg id="Group_1236" data-name="Group 1236" xmlns="http://www.w3.org/2000/svg" width="20.048" height="22.542" viewBox="0 0 20.048 22.542">
  <path id="Path_794" data-name="Path 794" d="M46.323,3.244h-4.69V2.479A2.482,2.482,0,0,0,39.153,0H34.7a2.482,2.482,0,0,0-2.479,2.479v.765h-4.69a.626.626,0,0,0,0,1.251h1.131V19.2A3.35,3.35,0,0,0,32,22.542h9.843A3.35,3.35,0,0,0,45.192,19.2V4.5h1.131a.626.626,0,0,0,0-1.251ZM33.467,2.479A1.23,1.23,0,0,1,34.7,1.251h4.458a1.23,1.23,0,0,1,1.228,1.228v.765H33.467ZM43.941,19.2a2.1,2.1,0,0,1-2.095,2.095H32A2.1,2.1,0,0,1,29.908,19.2V4.5H43.945V19.2Z" transform="translate(-26.9)" fill="#f13b3b"/>
  <path id="Path_795" data-name="Path 795" d="M230.326,157.709a.623.623,0,0,0,.626-.626V146.026a.626.626,0,0,0-1.251,0v11.053A.627.627,0,0,0,230.326,157.709Z" transform="translate(-220.301 -138.662)" fill="#f13b3b"/>
  <path id="Path_796" data-name="Path 796" d="M142.226,171.132a.623.623,0,0,0,.626-.626v-9.681a.626.626,0,1,0-1.251,0v9.681A.626.626,0,0,0,142.226,171.132Z" transform="translate(-136.284 -152.776)" fill="#f13b3b"/>
  <path id="Path_797" data-name="Path 797" d="M318.426,171.132a.623.623,0,0,0,.626-.626v-9.681a.626.626,0,1,0-1.251,0v9.681A.623.623,0,0,0,318.426,171.132Z" transform="translate(-304.319 -152.776)" fill="#f13b3b"/>
</svg>
