<svg id="Group_1236" data-name="Group 1236" xmlns="http://www.w3.org/2000/svg" width="15.993" height="17.982" viewBox="0 0 15.993 17.982">
  <path id="Path_794" data-name="Path 794" d="M42.394,2.588H38.653v-.61A1.98,1.98,0,0,0,36.675,0H33.118A1.98,1.98,0,0,0,31.14,1.978v.61H27.4a.5.5,0,0,0,0,1h.9V15.313a2.673,2.673,0,0,0,2.669,2.669h7.852a2.673,2.673,0,0,0,2.669-2.669V3.586h.9a.5.5,0,0,0,0-1Zm-10.256-.61a.981.981,0,0,1,.98-.98h3.557a.981.981,0,0,1,.98.98v.61H32.139Zm8.355,13.335a1.674,1.674,0,0,1-1.671,1.671H30.97A1.674,1.674,0,0,1,29.3,15.313V3.586H40.5V15.313Z" transform="translate(-26.9)" fill="#fff"/>
  <path id="Path_795" data-name="Path 795" d="M230.2,155.219a.5.5,0,0,0,.5-.5V145.9a.5.5,0,0,0-1,0v8.817A.5.5,0,0,0,230.2,155.219Z" transform="translate(-222.202 -140.025)" fill="#fff"/>
  <path id="Path_796" data-name="Path 796" d="M142.1,168.921a.5.5,0,0,0,.5-.5V160.7a.5.5,0,1,0-1,0v7.723A.5.5,0,0,0,142.1,168.921Z" transform="translate(-137.36 -154.277)" fill="#fff"/>
  <path id="Path_797" data-name="Path 797" d="M318.3,168.921a.5.5,0,0,0,.5-.5V160.7a.5.5,0,1,0-1,0v7.723A.5.5,0,0,0,318.3,168.921Z" transform="translate(-307.045 -154.277)" fill="#fff"/>
</svg>
