<svg xmlns="http://www.w3.org/2000/svg" width="22" height="20.705" viewBox="0 0 22 20.705">
  <g id="shopping-cart-empty-side-view" transform="translate(0 -13.148)">
    <path id="Path_59" data-name="Path 59" d="M21.873,17.1a.706.706,0,0,0-.549-.3L7.677,16.207a.706.706,0,0,0-.061,1.41l12.723.548-2.5,7.805H6.706L4.694,15.02a.706.706,0,0,0-.436-.529L.964,13.2a.706.706,0,0,0-.517,1.314l2.929,1.151L5.423,26.8a.706.706,0,0,0,.694.578h.34l-.775,2.153a.588.588,0,0,0,.553.787h.544a2.118,2.118,0,1,0,3.148,0h4.617a2.117,2.117,0,1,0,3.148,0h.661a.588.588,0,1,0,0-1.176H7.072l.635-1.765H18.353a.706.706,0,0,0,.672-.49l2.941-9.176A.7.7,0,0,0,21.873,17.1ZM8.353,32.677a.941.941,0,1,1,.941-.941A.942.942,0,0,1,8.353,32.677Zm7.764,0a.941.941,0,1,1,.941-.941A.942.942,0,0,1,16.117,32.677Z" transform="translate(0 0)" fill="#fff"/>
  </g>
</svg>
