<svg xmlns="http://www.w3.org/2000/svg" width="15.904" height="15.964" viewBox="0 0 15.904 15.964">
  <g id="telephone" transform="translate(-0.912 0)">
    <path id="Path_66" data-name="Path 66" d="M4.134,10.612a16.937,16.937,0,0,0,5.634,4.413,8.768,8.768,0,0,0,3.153.933c.076,0,.149.007.225.007a2.611,2.611,0,0,0,2.024-.87.072.072,0,0,0,.013-.017,8.524,8.524,0,0,1,.638-.662c.155-.149.314-.3.466-.463a1.6,1.6,0,0,0-.007-2.378L14.293,9.587a1.609,1.609,0,0,0-1.164-.536,1.663,1.663,0,0,0-1.178.533l-1.184,1.184c-.109-.063-.222-.119-.327-.172a4.09,4.09,0,0,1-.364-.2A12.533,12.533,0,0,1,7.082,7.671,7.218,7.218,0,0,1,6.07,6.057c.311-.281.6-.576.883-.863.1-.1.2-.205.3-.308A1.7,1.7,0,0,0,7.806,3.7,1.682,1.682,0,0,0,7.257,2.5l-.986-.986c-.116-.116-.225-.228-.337-.344C5.716.949,5.487.718,5.263.509A1.649,1.649,0,0,0,4.1,0,1.7,1.7,0,0,0,2.92.513L1.683,1.75A2.542,2.542,0,0,0,.926,3.377a6.122,6.122,0,0,0,.46,2.646A15.4,15.4,0,0,0,4.134,10.612Zm-2.4-7.165a1.75,1.75,0,0,1,.526-1.125L3.489,1.092A.891.891,0,0,1,4.1.81a.845.845,0,0,1,.6.288c.222.205.43.42.655.648.112.116.228.232.344.351l.986.986a.9.9,0,0,1,.311.619.9.9,0,0,1-.311.619c-.1.1-.205.208-.308.311-.308.311-.6.605-.913.887l-.017.017a.647.647,0,0,0-.165.734c0,.01.007.017.01.026A7.785,7.785,0,0,0,6.447,8.184a13.228,13.228,0,0,0,3.189,2.9,4.735,4.735,0,0,0,.437.238,4.09,4.09,0,0,1,.364.2l.036.02a.691.691,0,0,0,.321.083.7.7,0,0,0,.493-.225l1.237-1.237a.875.875,0,0,1,.605-.294.831.831,0,0,1,.586.294l1.995,1.991A.8.8,0,0,1,15.7,13.4c-.139.149-.284.291-.44.44a9.526,9.526,0,0,0-.691.718,1.816,1.816,0,0,1-1.419.6c-.056,0-.116,0-.172-.007a7.965,7.965,0,0,1-2.851-.853,16.09,16.09,0,0,1-5.362-4.2A14.737,14.737,0,0,1,2.15,5.753,5.335,5.335,0,0,1,1.733,3.447Z" transform="translate(0)" fill="#fff"/>
  </g>
</svg>
