<svg id="youtube" xmlns="http://www.w3.org/2000/svg" width="23.097" height="16.255" viewBox="0 0 23.097 16.255">
  <path id="XMLID_823_" d="M22.2,47.312c-.834-.991-2.373-1.4-5.313-1.4H6.213c-3.007,0-4.572.43-5.4,1.485C0,48.431,0,49.947,0,52.045v4c0,4.064.961,6.128,6.213,6.128H16.884c2.549,0,3.962-.357,4.876-1.231.937-.9,1.337-2.361,1.337-4.9v-4C23.1,49.833,23.034,48.308,22.2,47.312ZM14.828,54.6,9.983,57.129a.745.745,0,0,1-1.09-.66V51.42a.745.745,0,0,1,1.088-.661l4.846,2.516a.745.745,0,0,1,0,1.322Z" transform="translate(0 -45.917)" fill="#fff"/>
</svg>
